<svg xmlns="http://www.w3.org/2000/svg" viewBox="0 0 154 12" fill="none" aria-label="Motive Partners">
  <path fill-rule="evenodd" clip-rule="evenodd" d="M25.2479 1.62093C24.7165 1.10219 24.0899 0.700141 23.363 0.422206C22.6361 0.14215 21.8426 0 20.9826 0C20.1205 0 19.326 0.14215 18.6022 0.422206C17.8763 0.700141 17.2466 1.10219 16.7163 1.62093C16.189 2.14286 15.7754 2.77511 15.4805 3.51662C15.1846 4.25813 15.0372 5.08557 15.0372 5.99894C15.0372 6.91443 15.1846 7.74187 15.4805 8.48338C15.7754 9.22702 16.189 9.85714 16.7163 10.3791C17.2466 10.901 17.8763 11.3009 18.6022 11.582C19.326 11.86 20.1205 12 20.9826 12C21.8426 12 22.6361 11.86 23.363 11.582C24.0899 11.3009 24.7165 10.901 25.2479 10.3791C25.7762 9.85714 26.1888 9.22702 26.4847 8.48338C26.7785 7.74187 26.929 6.91443 26.929 5.99894C26.929 5.08557 26.7785 4.25813 26.4847 3.51662C26.1888 2.77511 25.7762 2.14286 25.2479 1.62093ZM8.79474 0.290028L6.24027 7.74229H6.20956L3.67454 0.290028H0V11.7119H2.42854V2.95163H2.45925L5.24715 11.7119H7.09825L9.99161 2.95163H10.0233V11.7119H12.4509V0.290028H8.79474ZM23.4725 8.63932C23.7736 8.30941 24.0049 7.92433 24.1657 7.4756C24.3264 7.029 24.4063 6.5389 24.4063 5.99894C24.4063 5.47489 24.3264 4.98373 24.1657 4.53182C24.0049 4.08204 23.7736 3.69272 23.4725 3.36386C23.1705 3.03501 22.8122 2.78041 22.3904 2.59689C21.9706 2.41443 21.5006 2.3232 20.9826 2.3232C20.4614 2.3232 19.9936 2.41443 19.5738 2.59689C19.154 2.78041 18.7926 3.03501 18.4916 3.36386C18.1906 3.69272 17.9592 4.08204 17.7985 4.53182C17.6367 4.98373 17.5578 5.47489 17.5578 5.99894C17.5578 6.5389 17.6367 7.029 17.7985 7.4756C17.9592 7.92433 18.1906 8.30941 18.4916 8.63932C18.7926 8.96499 19.154 9.21959 19.5738 9.40311C19.9936 9.58557 20.4614 9.67786 20.9826 9.67786C21.5006 9.67786 21.9706 9.58557 22.3904 9.40311C22.8122 9.21959 23.1705 8.96499 23.4725 8.63932ZM28.4995 2.51648H31.6437V11.7085H34.0722V2.51648H37.2154V0.291938H28.4995V2.51648ZM41.7761 11.7114H39.3496V0.29162H41.7761V11.7114ZM49.3582 7.77295H49.3264L46.603 0.289922H43.8325L48.2371 11.7118H50.1813L54.7292 0.289922H52.1287L49.3582 7.77295ZM64.1122 7.06231H59.334V9.38869H64.6713V11.7119H56.9055V0.290028H64.3917V2.61322H59.334V4.74335H64.1122V7.06231ZM78.7353 0.904668C78.3872 0.678713 78.0053 0.520651 77.5835 0.428359C77.1637 0.336068 76.7623 0.292574 76.3774 0.292574H73.2014V11.7102H74.2304V6.29151H76.6108C77.047 6.29151 77.4647 6.23211 77.864 6.1133C78.2643 5.99661 78.6155 5.81521 78.9237 5.57228C79.2288 5.33253 79.4735 5.02383 79.6547 4.64724C79.8359 4.27065 79.926 3.82405 79.926 3.30743C79.926 2.71337 79.8154 2.22433 79.5912 1.8297C79.3701 1.44038 79.0854 1.12956 78.7353 0.904668ZM78.1681 4.8785C78.3861 4.72362 78.5612 4.51464 78.6984 4.25792C78.8315 4.00014 78.8981 3.68296 78.8981 3.30743C78.8981 2.9425 78.8295 2.63062 78.6892 2.3739C78.5499 2.114 78.3677 1.90078 78.1455 1.73423C77.9213 1.56768 77.6643 1.44569 77.3746 1.37037C77.0838 1.29505 76.7931 1.25686 76.5013 1.25686H74.2304V5.32192H76.5658C76.8545 5.32192 77.1391 5.28798 77.4207 5.21796C77.7012 5.15007 77.951 5.0355 78.1681 4.8785ZM85.2972 0.291407L80.4862 11.7111H81.5613L82.8073 8.67931H88.6441L89.841 11.7111H90.9928L86.3549 0.291407H85.2972ZM85.7795 1.45407L83.2107 7.71078H88.2684L85.7795 1.45407ZM98.4652 5.99968C98.7979 5.89254 99.101 5.72811 99.3764 5.50746C99.6518 5.28681 99.8791 5.00039 100.06 4.64714C100.242 4.2907 100.333 3.84091 100.333 3.29035C100.333 2.796 100.255 2.37804 100.099 2.03115C99.9446 1.69063 99.746 1.40421 99.5075 1.17931C99.2689 0.951238 98.9996 0.780446 98.6976 0.661634C98.3976 0.542822 98.1017 0.457956 97.812 0.404915C97.5212 0.350813 97.2519 0.318989 97.0032 0.30732L96.9175 0.304011C96.7082 0.295895 96.5378 0.289286 96.4104 0.289286H93.516V11.7101H94.5439V6.29141H96.4585L99.5535 11.7101H100.723L97.514 6.22564C97.8161 6.1832 98.1335 6.10789 98.4652 5.99968ZM94.5439 1.25781V5.32182H96.7226C97.2612 5.32182 97.7004 5.25605 98.0372 5.11284C98.3741 4.97281 98.6372 4.80095 98.8235 4.59728C99.0099 4.39466 99.1378 4.17189 99.2044 3.93639C99.2709 3.70194 99.3058 3.48554 99.3058 3.29035C99.3058 3.09728 99.2709 2.88087 99.2044 2.64749C99.1378 2.4088 99.0099 2.18921 98.8235 1.98554C98.6372 1.77868 98.3741 1.60789 98.0372 1.46786C97.7004 1.32889 97.2612 1.25781 96.7226 1.25781H94.5439ZM102.451 1.25983H106.217V11.7089H107.245V1.25983H111.01V0.292362H102.451V1.25983ZM121.672 10.2893H121.704V0.290028H122.731V11.7119H121.408L114.7 1.71153H114.67V11.7119H113.64V0.290028H114.965L121.672 10.2893ZM127.712 6.29257H133.067V5.32298H127.712V1.25792H133.423V0.290453H126.684V11.7112H133.673V10.7438H127.712V6.29257ZM142.707 5.50746C142.434 5.72811 142.13 5.89254 141.797 5.99968C141.466 6.10789 141.148 6.1832 140.847 6.22564L144.056 11.7101H142.887L139.79 6.29141H137.875V11.7101H136.848V0.289286H139.742C139.869 0.289286 140.039 0.295836 140.247 0.303901L140.336 0.30732C140.584 0.318989 140.854 0.350813 141.145 0.404915C141.435 0.457956 141.731 0.542822 142.031 0.661634C142.332 0.780446 142.602 0.951238 142.84 1.17931C143.079 1.40421 143.277 1.69063 143.432 2.03115C143.588 2.37804 143.666 2.796 143.666 3.29035C143.666 3.84091 143.575 4.2907 143.393 4.64714C143.212 5.00039 142.983 5.28681 142.707 5.50746ZM137.875 5.32182V1.25781H140.056C140.593 1.25781 141.031 1.32889 141.37 1.46786C141.707 1.60789 141.969 1.77868 142.157 1.98554C142.343 2.18921 142.471 2.4088 142.537 2.64749C142.604 2.88087 142.639 3.09728 142.639 3.29035C142.639 3.48554 142.604 3.70194 142.537 3.93639C142.471 4.17189 142.343 4.39466 142.157 4.59728C141.969 4.80095 141.707 4.97281 141.37 5.11284C141.031 5.25605 140.593 5.32182 140.056 5.32182H137.875ZM151.861 6.17822C152.283 6.40311 152.63 6.71818 152.912 7.12235C153.192 7.5244 153.333 8.07921 153.333 8.78996C153.333 9.30658 153.236 9.76485 153.052 10.1616C152.865 10.5605 152.614 10.8957 152.294 11.1683C151.981 11.442 151.614 11.6499 151.201 11.7889C150.785 11.9268 150.354 11.9989 149.907 11.9989C149.181 11.9989 148.512 11.8674 147.901 11.6043C147.288 11.3402 146.764 10.8978 146.326 10.273L147.307 9.5983C147.579 10.081 147.927 10.4427 148.359 10.6772C148.791 10.9116 149.279 11.0336 149.828 11.0336C150.173 11.0336 150.494 10.9795 150.795 10.8702C151.097 10.7631 151.355 10.6135 151.582 10.4173C151.806 10.2263 151.981 9.99293 152.111 9.71605C152.24 9.44342 152.305 9.13366 152.305 8.78996C152.305 8.39215 152.223 8.06542 152.063 7.80658C151.902 7.54668 151.687 7.33663 151.419 7.17008C151.148 7.00141 150.844 6.86139 150.504 6.74151C150.17 6.6227 149.822 6.50495 149.464 6.38826C149.107 6.26839 148.757 6.13472 148.42 5.98409C148.084 5.83451 147.78 5.6372 147.511 5.39533C147.239 5.15453 147.024 4.85007 146.864 4.48515C146.703 4.11917 146.622 3.66726 146.622 3.12942C146.622 2.62447 146.719 2.1768 146.912 1.78324C147.104 1.39074 147.363 1.06294 147.69 0.798798C148.017 0.536775 148.391 0.337341 148.817 0.202617C149.242 0.0689533 149.691 0.00212164 150.157 0.00212164C150.757 0.00212164 151.314 0.112447 151.828 0.333098C152.342 0.553748 152.788 0.920792 153.161 1.43635L152.274 2.0983C152.013 1.72065 151.71 1.43847 151.362 1.25071C151.014 1.06294 150.604 0.966407 150.126 0.966407C149.793 0.966407 149.478 1.01521 149.178 1.10537C148.877 1.19767 148.613 1.33133 148.389 1.50955C148.168 1.68564 147.987 1.91054 147.854 2.17893C147.719 2.44625 147.651 2.7645 147.651 3.12942C147.651 3.69908 147.79 4.13826 148.071 4.44378C148.35 4.75035 148.703 4.99328 149.12 5.16938C149.542 5.34547 149.998 5.50354 150.492 5.6372C150.985 5.77298 151.44 5.9512 151.861 6.17822Z" fill="currentColor"/>
</svg>
